<svg width="1000" height="1000" xmlns="http://www.w3.org/2000/svg" stroke="null" style="vector-effect: non-scaling-stroke;">
 <!-- Created with SVG Editor - http://github.com/mzalive/SVG Editor/ -->

 <g stroke="null">
  <title stroke="null">Layer 1</title>
  <metadata transform="matrix(0.10562499225139632,0,0,0.10562499225139632,0,0) " id="svg_865">image/svg+xml</metadata>

  <g stroke="null" id="svg_867">
   <g stroke="null" id="svg_724" transform="matrix(1.5654485651843406,0,0,-1.5654485651843406,63.88571263582264,846.4173539038051) ">
    <g stroke="null" id="svg_725" transform="translate(0,-3300.296142578125) scale(0.10000000149011612) ">
     <path fill="#bde9e1" fill-rule="nonzero" d="m2860.927492,36865.269595c-103.43,0.27 -204.73,19.16 -298.19,67.97c-78.01,40.73 -152.28,88.82 -232.73,124.5c-241.87,107.24 -573.66,55.92 -801.56,-65.21c-376.132,-199.92 -610.601,-612.99 -661.038,-1035.95c-38.801,-325.4 29.687,-659.28 179.043,-949.8c75.523,-146.9 171.824,-283.26 285.965,-402.72c174.75,-182.91 345.3,-331.29 578.83,-434.46c401.61,-177.45 861.52,-224.83 1288.53,-117.91c514.91,128.93 971.76,483.09 1213.52,955.64c150.76,294.65 216.59,637.52 187.55,969.65c-28.56,326.64 -144.69,694.23 -406.43,908.67c-8.6,7.03 -17.33,13.9 -26.18,20.59c-246.06,185.74 -508.88,154.71 -788.27,64.2c-160.46,-51.99 -342.86,-105.61 -519.04,-105.17" id="svg_863"/>
     <path fill="#ffffff" fill-rule="nonzero" d="m4832.087492,35616.979595l-1164.25,0l0,1350.09l1164.25,0l0,-1350.09" id="svg_862"/>
     <path stroke="#bde9e1" fill="none" stroke-width="10" stroke-miterlimit="10" d="m4832.087492,35616.979595l-1164.25,0l0,1350.09l1164.25,0l0,-1350.09z" id="svg_861"/>
     <path fill="#ffffff" fill-rule="nonzero" d="m4774.217492,35667.779595l-524.26,0l0,1248.51l524.26,0l0,-1248.51" id="svg_860"/>
     <path stroke="#bde9e1" fill="none" stroke-width="10" stroke-miterlimit="10" d="m4774.217492,35667.779595l-524.26,0l0,1248.51l524.26,0l0,-1248.51z" id="svg_859"/>
     <path fill="#ffffff" fill-rule="nonzero" d="m4249.957492,35667.779595l-524.25,0l0,1248.51l524.25,0l0,-1248.51" id="svg_858"/>
     <path stroke="#bde9e1" fill="none" stroke-width="10" stroke-miterlimit="10" d="m4249.957492,35667.779595l-524.25,0l0,1248.51l524.25,0l0,-1248.51z" id="svg_857"/>
     <path fill="#10454c" fill-rule="nonzero" d="m4344.427492,36135.649595l-44.25,0l0,312.76l44.25,0l0,-312.76" id="svg_856"/>
     <path fill="#10454c" fill-rule="nonzero" d="m4199.747492,36135.649595l-44.26,0l0,312.76l44.26,0l0,-312.76" id="svg_855"/>
     <path fill="#ffffff" fill-rule="nonzero" d="m4771.327492,33921.939595l-1121.6,0l0,1545.07l1121.6,0l0,-1545.07" id="svg_854"/>
     <path stroke="#bde9e1" fill="none" stroke-width="10" stroke-miterlimit="10" d="m4771.327492,33921.939595l-1121.6,0l0,1545.07l1121.6,0l0,-1545.07z" id="svg_853"/>
     <path fill="#ffffff" fill-rule="nonzero" d="m4713.467492,35010.739595l-1005.88,0l0,406.93l1005.88,0l0,-406.93" id="svg_852"/>
     <path stroke="#bde9e1" fill="none" stroke-width="10" stroke-miterlimit="10" d="m4713.467492,35010.739595l-1005.88,0l0,406.93l1005.88,0l0,-406.93z" id="svg_851"/>
     <path fill="#ffffff" fill-rule="nonzero" d="m4713.467492,34545.319595l-1005.88,0l0,406.92l1005.88,0l0,-406.92" id="svg_850"/>
     <path stroke="#bde9e1" fill="none" stroke-width="10" stroke-miterlimit="10" d="m4713.467492,34545.319595l-1005.88,0l0,406.92l1005.88,0l0,-406.92z" id="svg_849"/>
     <path fill="#ffffff" fill-rule="nonzero" d="m4713.467492,34079.889595l-1005.88,0l0,406.93l1005.88,0l0,-406.93" id="svg_848"/>
     <path stroke="#bde9e1" fill="none" stroke-width="10" stroke-miterlimit="10" d="m4713.467492,34079.889595l-1005.88,0l0,406.93l1005.88,0l0,-406.93z" id="svg_847"/>
     <path fill="#10454c" fill-rule="nonzero" d="m4330.707492,35192.589595l-240.35,0l0,43.24l240.35,0l0,-43.24" id="svg_846"/>
     <path fill="#10454c" fill-rule="nonzero" d="m4330.707492,34727.169595l-240.35,0l0,43.23l240.35,0l0,-43.23" id="svg_845"/>
     <path fill="#10454c" fill-rule="nonzero" d="m4330.707492,34261.739595l-240.35,0l0,43.23l240.35,0l0,-43.23" id="svg_844"/>
     <path fill="#10454c" fill-rule="nonzero" d="m3755.597492,33713.339595l-61.05,0l0,208.6l93.47,0l-32.42,-208.6" id="svg_843"/>
     <path fill="#10454c" fill-rule="nonzero" d="m4665.467492,33713.339595l61.04,0l0,208.6l-93.47,0l32.43,-208.6" id="svg_842"/>
     <path fill="#ffffff" fill-rule="nonzero" d="m2456.117492,35488.919595l-1639.337,0l0,93.51l1639.337,0l0,-93.51" id="svg_841"/>
     <path stroke="#bde9e1" fill="none" stroke-width="10" stroke-miterlimit="10" d="m2456.117492,35488.919595l-1639.337,0l0,93.51l1639.337,0l0,-93.51z" id="svg_840"/>
     <path fill="#ffffff" fill-rule="nonzero" d="m2408.267492,34978.569595l-1543.644,0l0,510.35l1543.644,0l0,-510.35" id="svg_839"/>
     <path stroke="#bde9e1" fill="none" stroke-width="10" stroke-miterlimit="10" d="m2408.267492,34978.569595l-1543.644,0l0,510.35l1543.644,0l0,-510.35z" id="svg_838"/>
     <path fill="#10454c" fill-rule="nonzero" d="m943.354492,33713.309595l-55.317,0l0,1262.1l88.512,0l-33.195,-1262.1" id="svg_837"/>
     <path fill="#10454c" fill-rule="nonzero" d="m2329.537492,33713.309595l55.32,0l0,1262.1l-88.51,0l33.19,-1262.1" id="svg_836"/>
     <path fill="#10454c" fill-rule="nonzero" d="m1882.077492,35196.599595l-491.27,0l0,74.29l491.27,0l0,-74.29" id="svg_835"/>
     <path fill="#f1435e" fill-rule="nonzero" d="m1511.877492,35587.879595l-239.187,0c-12.012,0 -21.742,9.73 -21.742,21.74l0,370.66c0,16.54 13.414,29.96 29.957,29.96l222.762,0c16.54,0 29.96,-13.42 29.96,-29.96l0,-370.66c0,-12.01 -9.73,-21.74 -21.75,-21.74" id="svg_834"/>
     <path fill="#10454c" fill-rule="nonzero" d="m1525.447492,36064.689595l-266.32,0c-7.25,0 -13.129,-5.88 -13.129,-13.13l0,-30.34c0,-7.24 5.879,-13.12 13.129,-13.12l266.32,0c7.25,0 13.13,5.88 13.13,13.12l0,30.34c0,7.25 -5.88,13.13 -13.13,13.13" id="svg_833"/>
     <path fill="#ffffff" fill-rule="nonzero" d="m1493.697492,35725.079595l-242.749,0l0,172.89l242.749,0l0,-172.89" id="svg_832"/>
     <path fill="#42bfb4" fill-rule="nonzero" d="m1800.187492,35587.879595l-192.82,0c-12.01,0 -21.75,9.73 -21.75,21.74l0,301.37c0,16.55 13.42,29.96 29.96,29.96l176.39,0c16.55,0 29.96,-13.41 29.96,-29.96l0,-301.37c0,-12.01 -9.73,-21.74 -21.74,-21.74" id="svg_831"/>
     <path fill="#10454c" fill-rule="nonzero" d="m1815.087492,35986.469595l-222.63,0c-6.06,0 -10.97,-4.91 -10.97,-10.97l0,-25.37c0,-6.06 4.91,-10.97 10.97,-10.97l222.63,0c6.07,0 10.98,4.91 10.98,10.97l0,25.37c0,6.06 -4.91,10.97 -10.98,10.97" id="svg_830"/>
     <path fill="#ffffff" fill-rule="nonzero" d="m1788.547492,35702.569595l-202.93,0l0,144.53l202.93,0l0,-144.53" id="svg_829"/>
     <path fill="#ffffff" fill-rule="nonzero" d="m1944.657492,36719.029595c0,-198.3 -160.75,-359.04 -359.04,-359.04c-198.29,0 -359.033,160.74 -359.033,359.04c0,198.29 160.743,359.03 359.033,359.03c198.29,0 359.04,-160.74 359.04,-359.03" id="svg_828"/>
     <path stroke="#10454c" fill="none" stroke-width="10" stroke-miterlimit="10" d="m1944.657492,36719.029595c0,-198.3 -160.75,-359.04 -359.04,-359.04c-198.29,0 -359.033,160.74 -359.033,359.04c0,198.29 160.743,359.03 359.033,359.03c198.29,0 359.04,-160.74 359.04,-359.03z" id="svg_827"/>
     <path fill="#ffffff" fill-rule="nonzero" d="m1911.017492,36719.029595c0,-179.72 -145.68,-325.4 -325.4,-325.4c-179.71,0 -325.396,145.68 -325.396,325.4c0,179.71 145.686,325.4 325.396,325.4c179.72,0 325.4,-145.69 325.4,-325.4" id="svg_826"/>
     <path stroke="#10454c" fill="none" stroke-width="10" stroke-miterlimit="10" d="m1911.017492,36719.029595c0,-179.72 -145.68,-325.4 -325.4,-325.4c-179.71,0 -325.396,145.68 -325.396,325.4c0,179.71 145.686,325.4 325.396,325.4c179.72,0 325.4,-145.69 325.4,-325.4z" id="svg_825"/>
     <path fill="#ffffff" fill-rule="nonzero" d="m1480.067492,36934.479595l105.55,-215.45l128.07,79.86" id="svg_824"/>
     <path stroke="#10454c" fill="none" stroke-width="20" stroke-linecap="round" stroke-linejoin="round" stroke-miterlimit="10" d="m1480.067492,36934.479595l105.55,-215.45l128.07,79.86" id="svg_823"/>
     <path fill="#42bfb4" fill-rule="nonzero" d="m1598.507492,34424.369595c-19.3,33.22 -69.9,47.78 -98,21.57c46.67,88.84 94.79,186.32 76.69,285.02c-8.32,45.42 -33.1,90.24 -74.27,111.15c-41.18,20.91 -99.22,10.12 -121.61,-30.27c-15.44,41.35 -31.07,83.07 -55.17,120.04c-24.11,36.97 -57.742,69.31 -99.469,83.69c-41.723,14.38 -92.027,8.02 -123.719,-22.69c-35.918,-34.83 -40.672,-92.63 -24.804,-140.06c15.875,-47.44 48.695,-86.99 80.824,-125.33c-33.715,27.68 -86.527,25.64 -121.41,-0.57c-34.879,-26.2 -51.649,-72.51 -47.324,-115.92c4.328,-43.4 27.828,-83.5 59.699,-113.3c31.863,-29.79 71.644,-50.02 112.801,-64.49c-31.586,10.6 -68.946,1.2 -91.762,-23.08c-22.824,-24.26 -29.891,-62.13 -17.363,-93c19.703,-48.57 75.722,-68.66 121.785,-93.66c85.734,-46.53 152.042,-127.64 180.592,-220.9l49,-1.57c24.45,80.79 65.19,156.62 119.08,221.61c24.51,29.58 52,57.35 69.68,91.45c17.68,34.1 24.05,77.1 4.75,110.31" id="svg_822"/>
     <path fill="#c7ecea" fill-rule="nonzero" d="m1430.837492,34257.629595c-7.97,58.47 -19.25,116.48 -33.72,173.69c-14.53,57.46 -32.29,114.11 -53.15,169.59c-20.69,55.03 -44.418,108.93 -71.082,161.33c-26.758,52.59 -56.484,103.68 -89.055,152.87c-4.019,6.07 -8.082,12.11 -12.183,18.13c-2.582,3.79 -8.801,0.2 -6.192,-3.62c33.098,-48.54 63.442,-98.94 90.84,-150.91c27.371,-51.93 51.832,-105.38 73.222,-160.05c21.4,-54.72 39.77,-110.62 54.99,-167.36c15.14,-56.5 27.17,-113.82 35.97,-171.64c8.86,-58.28 14.39,-117.06 16.54,-175.97c0.26,-7.28 0.47,-14.55 0.64,-21.83c0.1,-4.61 7.27,-4.62 7.16,0c-1.33,58.8 -6.03,117.49 -13.98,175.77" id="svg_821"/>
     <path fill="#0e7d88" fill-rule="nonzero" d="m1981.597492,34979.329595c-3.57,76.91 -71.63,145.39 -148.51,149.46c-61.33,3.23 -120.01,-30.25 -161.56,-75.47c-41.55,-45.23 -68.84,-101.41 -95.54,-156.72c-29.06,44.64 -90.69,61.83 -141.54,46c-50.86,-15.83 -89.91,-59.97 -107.85,-110.11c-17.954,-50.16 -16.72,-105.56 -5.536,-157.64c11.176,-52.07 31.856,-101.55 52.436,-150.67c-26.72,27.94 -76.456,24 -104.331,-2.8c-27.871,-26.78 -35.464,-69.87 -27.062,-107.6c8.398,-37.74 30.594,-70.96 55.32,-100.68c24.723,-29.72 52.463,-57.01 74.903,-88.49c42.74,-59.95 64.71,-134.44 61.34,-207.99l133.25,1.92c7.49,41.47 34.45,77.2 66.4,104.66c31.96,27.46 69.13,48.02 104.6,70.75c35.48,22.75 70.15,48.52 93.89,83.33c23.73,34.83 35.11,80.32 20.8,119.95c-8.9,24.62 -27.46,45.61 -50.82,57.44c-23.35,11.82 -48.17,16.25 -73.29,8.83c71.92,44.3 128.79,112.57 159.35,191.3c11.31,29.14 19.17,60.68 14.28,91.55c-4.89,30.86 -24.8,60.82 -54.54,70.4c76.17,11.17 137.58,85.67 134.01,162.58" id="svg_820"/>
     <path fill="#c7ecea" fill-rule="nonzero" d="m1846.487492,34997.479595c-47.17,-49.9 -90.31,-103.61 -128.99,-160.34c-38.81,-56.93 -73.13,-116.9 -102.68,-179.12c-29.36,-61.82 -54.06,-125.86 -73.77,-191.4c-19.84,-65.98 -34.63,-133.48 -44.08,-201.72c-9.42,-68.04 -13.61,-136.79 -12.16,-205.46c0.18,-8.39 0.45,-16.77 0.78,-25.15c0.19,-4.6 7.36,-4.61 7.17,0c-2.75,68.06 -0.06,136.3 7.95,203.94c8.06,68.09 21.54,135.55 40.03,201.57c18.42,65.81 41.82,130.24 70.02,192.49c28.2,62.29 61.14,122.42 98.54,179.67c37.36,57.2 79.19,111.46 125.15,162c5.64,6.21 11.35,12.36 17.11,18.45c3.17,3.35 -1.89,8.43 -5.07,5.07" id="svg_819"/>
     <path fill="#bb2831" fill-rule="nonzero" d="m1649.547492,34118.469595l-16.99,-257.21l-3.23,-48.11l-3,-46.31l-3.16,-47.82l-3.08,-46.6l-3.16,-47.45l-25.95,-392.43l-285.537,0l-28.172,425.62l-2.727,42.08l-3.3,49.25l-2.793,42.16l-3.227,48.74l-2.797,42.37l-15.558,235.71l402.681,0" id="svg_818"/>
     <path fill="#f1435e" fill-rule="nonzero" d="m1632.557492,33861.259595l-3.23,-48.11c-48.38,-20.64 -99.29,-33.55 -152.84,-25.31c-66.96,10.33 -141.66,60.37 -211.266,52.55l-2.797,42.37c51.043,3.95 103.663,-15.56 152.983,-33.34c48.47,-17.41 94.85,-27.23 145.89,-14.76c24.73,6.09 48.32,15.55 71.26,26.6" id="svg_817"/>
     <path fill="#f1435e" fill-rule="nonzero" d="m1626.327492,33766.839595l-3.16,-47.82c-46.53,-19.07 -95.42,-30.54 -146.68,-22.66c-65.02,9.98 -137.36,57.43 -205.246,53.13l-2.793,42.16c49.175,2 99.579,-16.71 146.959,-33.7c48.47,-17.43 94.85,-27.32 145.89,-14.77c22.51,5.45 44.02,13.84 65.03,23.66" id="svg_816"/>
     <path fill="#f1435e" fill-rule="nonzero" d="m1620.087492,33672.419595l-3.16,-47.45c-44.73,-17.5 -91.47,-27.68 -140.44,-20.149c-63.16,9.749 -133.13,54.699 -199.219,53.339l-2.727,42.08c47.246,0.28 95.486,-17.57 140.866,-33.84c48.47,-17.42 94.85,-27.24 145.89,-14.77c20.29,5.02 39.79,12.26 58.79,20.79" id="svg_815"/>
     <path fill="#100f0d" fill-rule="nonzero" d="m2397.427492,36974.909595c62.2,-17.61 115.67,-73.28 124.14,-140.5c10.33,-81.99 -43.48,-164.46 -23.84,-244.55c17.08,-69.64 85.15,-115.65 101.8,-185.41c13.47,-56.42 -11.27,-117.57 -51.89,-156.99c-40.63,-39.42 -94.74,-60 -148.88,-71.63c-59.79,-12.84 -122.51,-15.8 -181.42,0.96c-91.91,26.14 -169.61,102.24 -201.01,196.86c-32.38,97.57 -13.71,201.23 8.96,298.59c20.73,89.02 55.42,246.11 157.7,264.71c75.23,13.68 135.07,60.42 214.44,37.96" id="svg_814"/>
     <path fill="#f7998b" fill-rule="nonzero" d="m2522.177492,35395.689595c30.34,-683.87 -46.99,-1996.619 -46.99,-1996.619c0,0 -86.12,-17.262 -151.15,3.93l-155.15,1992.689l353.29,0" id="svg_813"/>
     <path fill="#f7998b" fill-rule="nonzero" d="m1882.067492,35395.689595c-11.36,-731.78 101.72,-1996.619 101.72,-1996.619c0,0 78.55,-17.25 151.16,3.93l100.41,1992.689l-353.29,0" id="svg_812"/>
     <path fill="#10454c" fill-rule="nonzero" d="m2701.317492,33339.101595c-116.84,20.156 -174.94,18.199 -226.13,59.969c0,0 -59.16,-12.93 -151.15,3.93c0,0 -46.63,-87.211 -20.56,-169.559l89.04,0l24.83,44.828l51.17,-45.699l326.1,0c0,0 23.53,86.371 -93.3,106.531" id="svg_811"/>
     <path fill="#10454c" fill-rule="nonzero" d="m1757.667492,33339.101595c116.84,20.156 174.94,18.199 226.12,59.969c0,0 59.17,-12.93 151.16,3.93c0,0 46.63,-87.211 20.56,-169.559l-89.05,0l-24.82,44.828l-51.17,-45.699l-326.11,0c0,0 -23.53,86.371 93.31,106.531" id="svg_810"/>
     <path fill="#f7998b" fill-rule="nonzero" d="m3021.437492,35737.499595l-16.57,130.03c37.24,25.13 35.75,84.19 63.25,84.77c27.41,0.58 4.87,-82.58 4.87,-82.58c0,0 172.2,47.15 177.07,22.31c4.88,-24.86 -66.86,-48.97 -66.86,-48.97c0,0 37.36,-66.63 0.81,-99.46c-43.14,-38.76 -100.18,-2.45 -162.57,-6.1" id="svg_809"/>
     <path fill="#c7ecea" fill-rule="nonzero" d="m3295.007492,35714.879595l2.64,2.81l-48.73,45.79l-2.65,-2.81l48.74,-45.79" id="svg_808"/>
     <path fill="#42bfb4" fill-rule="nonzero" d="m3099.307492,35878.889595l22.45,23.9l-21.08,19.81l-22.45,-23.9l21.08,-19.81" id="svg_807"/>
     <path fill="#42bfb4" fill-rule="nonzero" d="m3074.107492,35892.429595l32.57,34.68l-6.56,6.16l-32.58,-34.67l6.57,-6.17" id="svg_806"/>
     <path fill="#c7ecea" fill-rule="nonzero" d="m3211.537492,35758.899595l36.98,39.36l-123.71,116.22l-36.97,-39.36l123.7,-116.22" id="svg_805"/>
     <path fill="#42bfb4" fill-rule="nonzero" d="m3245.917492,35748.549595l15.07,16.04l-19.68,26l-22.57,-24.02l27.18,-18.02" id="svg_804"/>
     <path fill="#ffffff" fill-rule="nonzero" d="m2420.887492,36342.319595c94.07,-39.36 167.53,-495.63 167.53,-495.63l433.26,44.61c0,0 35.54,-107.6 16.01,-167.07c0,0 -459.36,-79.83 -532.48,-46.2c-66.14,30.43 -134.47,353.9 -134.47,353.9l50.15,310.39" id="svg_803"/>
     <path fill="#42bfb4" fill-rule="nonzero" d="m1882.047492,35395.689595c-86.59,-403.04 -86.59,-1019.19 -86.59,-1019.19c0,0 386.08,-75.56 843.82,29.93l-117.1,989.26l-640.13,0" id="svg_802"/>
     <path fill="#42bfb4" fill-rule="nonzero" d="m1882.047492,35395.689595c8.12,-8.37 351.81,-88.05 640.13,0l-95.84,487.59l-5.33,27.2c0,0 55.07,22.66 64.12,125.21c5.78,65.13 -7.03,162.46 -64.24,306.63l-37.86,17.05l-59.35,22.42l-129.22,6.26l-132.52,-36.69l0,-0.92c0,0 3.96,-103.15 -27.6,-301.74c-1.78,-11.15 -3.64,-22.59 -5.66,-34.35c-6.34,-37.16 -14.26,-77.81 -23.11,-119.91c-48,-227.85 -123.52,-498.75 -123.52,-498.75" id="svg_801"/>
     <path fill="#ffffff" fill-rule="nonzero" d="m2345.417492,36373.579595c-58.05,-532.74 97.96,-1878.93 97.96,-1878.93c0,0 153.36,9.03 222.17,36.31l-222.25,1351.64c0,0 140.4,105.2 -22.41,459.72l-75.47,31.26" id="svg_800"/>
     <path fill="#ffffff" fill-rule="nonzero" d="m2170.467492,36381.409595c0,0 87.82,-946.14 31.65,-1901.57c0,0 -225.17,-35.35 -425.1,14.81c0,0 52.96,875.3 201.68,1416.39l83.24,440.32l108.53,30.05" id="svg_799"/>
     <path fill="#c7ecea" fill-rule="nonzero" d="m2136.977492,35238.559595c0,0 -130.93,6.36 -213.68,0c0,0 -55.46,-252.77 90.02,-263.68c145.48,-10.91 123.66,263.68 123.66,263.68" id="svg_798"/>
     <path fill="#f9aca4" fill-rule="nonzero" d="m3463.667492,36004.559595c-124.4,-36.97 -313.32,-519.57 -327.19,-525.66c-10.77,-4.74 -526,-83.21 -526,-83.21l0,-100.8c0,0 582.87,2.47 633.24,39.97c87.75,65.31 219.95,324.65 219.95,324.65l0,345.05" id="svg_797"/>
     <path fill="#f9aca4" fill-rule="nonzero" d="m2672.027492,35348.849595c0,0 -22.08,-51.65 -71.3,-56.89c-48.39,-5.15 -74.32,22.65 -74.32,22.65c0,0 -33.49,-66.93 -50.06,-67.22c-16.58,-0.3 13.29,79 13.29,79c0,0 -65.29,-58.44 -75.64,-48.45c-10.35,9.99 54.77,77.48 54.77,77.48c0,0 -92.22,-27.27 -97.83,-8.53c-5.61,18.75 108.23,52.8 108.23,52.8c0,0 -75.86,37.62 -68.3,53.82c10.9,23.3 162.94,-28.39 163.28,-26.5c0.35,1.89 -17.53,76.91 13.68,78.64c30.12,1.66 15.37,-37.42 37.73,-65.66c10.39,-13.12 56.76,-55.52 46.47,-91.14" id="svg_796"/>
     <path fill="#f7998b" fill-rule="nonzero" d="m2554.497492,35441.639595c44.04,-72.17 183.11,-126.42 242.17,-73.82c0,0 9.52,6.41 11.61,21.96c0,0 17.74,5.82 20.19,26.55c0.22,1.69 18.16,17.33 15.59,34.07c0,0 12.16,17.54 0.18,28.19c-11.98,10.65 -85.54,-6.88 -111.46,1.02c-43.46,13.24 -44.91,30.31 -41.53,33.43c3.39,3.13 60.35,-21.27 69.19,-1.57c8.84,19.68 -47.77,44.65 -73.89,48.68c-52.56,8.11 -98.5,-16.55 -98.5,-16.55l-33.55,-101.96" id="svg_795"/>
     <path fill="#ffffff" fill-rule="nonzero" d="m2061.937492,36351.359595c-92.45,-25 -114.01,-518.32 -83.24,-602.81c40.22,-110.42 572.82,-334.72 572.82,-334.72c0,0 49.72,70.19 78.24,175.48l-449.68,234.72l-58.5,391.92l-59.64,135.41" id="svg_794"/>
     <path fill="#c7ecea" fill-rule="nonzero" d="m2436.967492,36287.089595c-1.54,4.32 5.33,6.18 6.86,1.89c19.82,-55.7 39.76,-111.79 49.93,-170.2c9.08,-52.1 10.02,-106.13 -3.5,-157.57c-7.37,-28.08 -19.16,-54.99 -35.7,-78.89c-2.59,-3.75 -8.76,-0.19 -6.14,3.59c29.31,42.36 42.71,93.4 44.75,144.47c2.22,55.75 -9.13,110.87 -25.03,164.04c-9.33,31.23 -20.25,61.96 -31.17,92.67" id="svg_793"/>
     <path fill="#c7ecea" fill-rule="nonzero" d="m2155.147492,35838.559595c3.56,-1.79 7.12,-3.59 10.69,-5.38c-3.15,75.54 -6.29,151.09 -9.43,226.63c-0.91,21.85 -1.82,43.7 -2.73,65.55c-0.19,4.58 6.93,4.57 7.12,0c3.22,-77.36 6.44,-154.71 9.66,-232.07c0.88,-21.26 1.77,-42.51 2.65,-63.77c7.76,-3.9 15.51,-7.8 23.27,-11.7c4.09,-2.06 0.49,-8.2 -3.6,-6.15c-13.74,6.92 -27.49,13.83 -41.23,20.73c-4.1,2.07 -0.5,8.21 3.6,6.16" id="svg_792"/>
     <path fill="#f7998b" fill-rule="nonzero" d="m2461.257492,36631.179595c-0.12,-1.03 -0.17,-1.95 -0.29,-2.98c-5.37,-50.43 -23.41,-82.42 -48.65,-106.28c-17.75,-16.99 -33.88,-28.05 -47.17,-38.68c-2.58,-1.99 -4.96,-4.07 -7.35,-6.14c-24.65,-21.06 -38.56,-44.03 -34.93,-109.97c-19.32,-57.41 -104.66,-69.96 -135.85,-7.47c-3.47,79.73 -22.38,147.7 -38.19,191.33c-3.96,11.44 -7.83,21.13 -11.12,28.9c-6.27,14.82 -10.61,23.01 -10.61,23.01c0,0 -5.95,175.44 16.67,223.31c55.25,115.71 272.99,89.21 294.7,0.67c21.21,-86.16 27.25,-148.83 22.79,-195.7" id="svg_791"/>
     <path fill="#100f0d" fill-rule="nonzero" d="m2465.277492,36745.699595c-50.55,17.09 -93.07,56.58 -113.87,105.73c-8.16,-37.32 -26.97,-72.4 -55.54,-97.76c-28.58,-25.36 -65.32,-41.37 -103.35,-45.04c-4.35,-35.89 -32.83,-68.2 -68.06,-76.38c-16.09,54.01 -26.4,111.12 -10.9,165.31c15.5,54.18 55.11,103.28 108.75,120.56c31.28,10.08 65.02,9.06 97.69,5.51c29.65,-3.21 60.22,-8.87 84.52,-26.18c23.4,-16.68 38.72,-42.82 47.48,-70.19c8.76,-27.38 10.54,-52.95 13.28,-81.56" id="svg_790"/>
     <path fill="#100f0d" fill-rule="nonzero" d="m2384.847492,36719.269595c16.64,12.59 38.91,12.79 55.59,-0.53c3.13,-2.49 3.86,-7.72 1.7,-11.21c-2.2,-3.57 -6.63,-4.32 -9.77,-1.82c-6.84,5.46 -15.38,7.71 -23.59,6.78c-4.15,-0.47 -8.23,-1.75 -11.98,-3.81c-3.32,-1.82 -6.5,-4.88 -10.39,-2.85c-0.93,0.49 -1.74,1.23 -2.4,2.12c-2.23,3.06 -2.32,8.93 0.84,11.32" id="svg_789"/>
     <path fill="#100f0d" fill-rule="nonzero" d="m2331.727492,36717.159595c-20.1,11.14 -45.56,9.45 -63.51,-5.24c-3.36,-2.75 -3.75,-8.02 -0.98,-11.32c2.82,-3.37 7.94,-3.75 11.31,-0.99c7.37,6.02 16.94,8.88 26.39,8.63c4.78,-0.13 9.54,-1.04 14.02,-2.72c3.95,-1.48 7.88,-4.22 12.13,-1.87c1.02,0.56 1.88,1.36 2.56,2.31c2.29,3.24 1.9,9.09 -1.92,11.2" id="svg_788"/>
     <path fill="#100f0d" fill-rule="nonzero" d="m2287.377492,36662.989595c0.34,-7.8 6.94,-13.84 14.73,-13.5c7.8,0.34 13.84,6.93 13.5,14.73c-0.34,7.79 -6.93,13.84 -14.73,13.5c-7.8,-0.34 -13.84,-6.93 -13.5,-14.73" id="svg_787"/>
     <path fill="#ffffff" fill-rule="nonzero" d="m2301.327492,36667.459595c0.12,-2.85 2.54,-5.06 5.39,-4.94c2.85,0.13 5.07,2.54 4.94,5.39c-0.12,2.86 -2.54,5.07 -5.39,4.95c-2.85,-0.13 -5.07,-2.54 -4.94,-5.4" id="svg_786"/>
     <path fill="#100f0d" fill-rule="nonzero" d="m2396.567492,36667.739595c0.33,-7.79 6.93,-13.84 14.73,-13.5c7.79,0.34 13.84,6.93 13.49,14.73c-0.33,7.8 -6.93,13.84 -14.72,13.5c-7.8,-0.34 -13.85,-6.93 -13.5,-14.73" id="svg_785"/>
     <path fill="#ffffff" fill-rule="nonzero" d="m2410.507492,36672.219595c0.13,-2.86 2.54,-5.07 5.4,-4.95c2.85,0.13 5.07,2.54 4.94,5.4c-0.12,2.85 -2.54,5.07 -5.39,4.94c-2.86,-0.12 -5.07,-2.54 -4.95,-5.39" id="svg_784"/>
     <path fill="#a1312e" fill-rule="nonzero" d="m2328.627492,36600.169595c3.94,7.01 15.91,0.68 29.71,0.47c13.8,-0.21 25.96,5.75 29.68,-1.38c4.7,-9.02 -7.56,-31.09 -30.17,-30.75c-22.62,0.35 -34.19,22.79 -29.22,31.66" id="svg_783"/>
     <path fill="#da554f" fill-rule="nonzero" d="m2330.337492,36585.339595c4.33,0.49 8.94,0.77 13.81,0.69c16.07,-0.25 29.77,-3.76 36.13,-8.6c-5.36,-5.15 -12.91,-9.06 -22.43,-8.92c-13.6,0.21 -23.1,8.41 -27.51,16.83" id="svg_782"/>
     <path fill="#ffffff" fill-rule="nonzero" d="m2358.217492,36592.879595c-12.33,0.19 -22.75,3.27 -26.48,9.99c5.49,2.11 15.45,-2.06 26.6,-2.23c11.15,-0.17 21.23,3.69 26.65,1.41c-3.93,-6.59 -14.44,-9.36 -26.77,-9.17" id="svg_781"/>
     <path fill="#da554f" fill-rule="nonzero" d="m2380.687492,36628.699595c0.8,0.04 1.51,0.59 1.72,1.41c2.96,12.18 -1.3,16.1 -5.41,17.23c-4.16,1.13 -9.04,-0.14 -14.48,-3.83c-0.84,-0.57 -1.06,-1.72 -0.49,-2.57c0.59,-0.83 1.74,-1.04 2.57,-0.49c4.49,3.05 8.34,4.18 11.41,3.33c3.69,-1.01 4.63,-5.32 2.81,-12.81c-0.24,-0.98 0.36,-1.98 1.35,-2.22c0.18,-0.05 0.36,-0.06 0.52,-0.05" id="svg_780"/>
     <path fill="#42bfb4" fill-rule="nonzero" d="m2368.757492,36648.839595c-30.14,0.77 -83.49,-35.05 -125.02,-36.93c0,0 5.76,-52.18 -4.84,-93.69c0,0 71.89,-31.53 132.66,-31.53c64.56,25.26 82.06,75.42 90.17,134.85c-22.5,3.05 -57.36,26.39 -92.97,27.3" id="svg_779"/>
     <path fill="#42bfb4" fill-rule="nonzero" d="m2253.997492,36613.839595c-33.93,12.02 -67.86,24.03 -101.79,36.04c-8.66,3.07 -12.38,-10.69 -3.78,-13.73c33.93,-12.02 67.85,-24.03 101.78,-36.05c8.66,-3.06 12.39,10.7 3.79,13.74" id="svg_778"/>
     <path fill="#42bfb4" fill-rule="nonzero" d="m2247.617492,36528.489595c-34.47,28.8 -68.93,57.61 -103.4,86.42c-6.98,5.84 -17.12,-4.19 -10.07,-10.08l103.39,-86.41c6.99,-5.84 17.12,4.18 10.08,10.07" id="svg_777"/>
     <path fill="#f7998b" fill-rule="nonzero" d="m2080.087492,36596.269595c19.7,-21.03 49.21,-25.4 65.9,-9.76c16.69,15.63 14.25,45.36 -5.45,66.39c-19.7,21.03 -49.2,25.4 -65.9,9.76c-16.69,-15.64 -14.25,-45.36 5.45,-66.39" id="svg_776"/>
     <path fill="#be4a45" fill-rule="nonzero" d="m2087.297492,36652.539595c7.64,4.59 18.13,4.97 28.06,1c4.95,-1.97 8.6,-4.51 11.18,-7.75c3.41,-4.29 4.59,-9.84 3.09,-14.48c-1.34,-4.18 -4.45,-7.01 -7.2,-9.51c-1.99,-1.81 -3.87,-3.51 -4.88,-5.49c-1.55,-3.03 -0.89,-7.12 1.54,-9.52c2.41,-2.38 6.51,-2.97 9.52,-1.37c1.77,0.93 3.96,0.26 4.9,-1.51c0.93,-1.75 0.26,-3.95 -1.5,-4.89c-1.93,-1.02 -4.06,-1.58 -6.22,-1.7c-4.29,-0.24 -8.69,1.27 -11.79,4.33c-4.65,4.59 -5.87,12.14 -2.89,17.96c1.61,3.14 4.18,5.48 6.46,7.54c2.27,2.07 4.42,4.03 5.17,6.37c0.75,2.35 0.02,5.39 -1.87,7.77c-0.76,0.96 -1.78,1.81 -2.89,2.62c-3.59,-0.17 -8.02,-1.52 -10.15,-4.12c-2.41,-2.95 -3.39,-7.06 -2.57,-10.76c0.43,-1.95 -0.8,-3.88 -2.75,-4.31c-0.2,-0.05 -0.39,-0.07 -0.59,-0.08c-1.74,-0.1 -3.34,1.07 -3.72,2.83c-1.32,5.89 0.19,12.21 4.02,16.9c1.43,1.74 3.27,2.97 5.21,3.99c-6.07,1.28 -11.95,0.64 -16.39,-2.03c-5.49,-3.29 -9.34,-11.24 -6.09,-17.36c0.94,-1.77 0.27,-3.96 -1.49,-4.9c-1.77,-0.93 -3.95,-0.26 -4.9,1.5c-4.73,8.92 -0.72,21.27 8.74,26.97" id="svg_775"/>
     <path fill="#0e7d88" fill-rule="nonzero" d="m3312.457492,33232.539595l45.82,0l0,1070.57c0,43.96 36.87,79.72 82.19,79.72l460.12,0c45.33,0 82.21,-35.76 82.21,-79.72l0,-1070.57l45.82,0l0,1070.57c0,69.23 -57.43,125.54 -128.03,125.54l-460.12,0c-70.58,0 -128.01,-56.31 -128.01,-125.54l0,-1070.57" id="svg_774"/>
     <path fill="#0e7d88" fill-rule="nonzero" d="m3209.887492,33603.449595l818.73,0l0,29.24l-818.73,0l0,-29.24" id="svg_773"/>
     <path fill="#42bfb4" fill-rule="nonzero" d="m3211.567492,33232.539595l45.82,0l0,1070.57c0,43.96 36.87,79.72 82.2,79.72l460.12,0c45.31,0 82.19,-35.76 82.19,-79.72l0,-1070.57l45.82,0l0,1070.57c0,69.23 -57.42,125.54 -128.01,125.54l-460.12,0c-70.59,0 -128.02,-56.31 -128.02,-125.54l0,-1070.57" id="svg_772"/>
     <path fill="#42bfb4" fill-rule="nonzero" d="m3233.247492,34651.199595l740.77,0c47.79,0 86.53,-38.74 86.53,-86.52l0,-58.76c0,-47.79 -38.74,-86.53 -86.53,-86.53l-740.77,0c-47.79,0 -86.53,38.74 -86.53,86.53l0,58.76c0,47.78 38.74,86.52 86.53,86.52" id="svg_771"/>
     <path fill="#bb2831" fill-rule="nonzero" d="m2882.237492,33263.988595l-0.48,-3.188c-0.47,-4.75 -1.04,-9.3 -1.9,-14.23c-0.96,-4.07 -1.73,-8.531 -2.59,-13.082l-488.36,-0.918c0,0 -0.78,5.031 -0.8,12.961c0.19,4.066 0.47,8.808 1.33,14.328c0.19,0.969 0.29,2.129 0.68,3.191c5.26,27.5 25.23,65.489 91.9,77.821c3.19,0.777 6.58,1.168 10.26,1.66l0.29,0.008c5.23,0.781 10.45,1.269 16.07,1.761c1.83,0.098 3.67,0.309 5.51,0.399c133.56,10.711 192.63,55.64 192.63,55.64c0,0 77.46,-15.332 150.03,0.29c0,0 8.55,-14.122 16.14,-38.688c1.17,-4.16 2.44,-8.613 3.62,-13.352c0.29,-0.871 0.48,-1.832 0.78,-2.898c0.49,-1.84 0.88,-3.973 1.27,-6.102c0.09,-0.582 0.29,-1.351 0.29,-1.941c0,-0.469 0.29,-0.668 0.29,-1.059c1.96,-10.058 3.43,-21.089 4.04,-33c0.59,-12.39 0.52,-25.648 -1,-39.601" id="svg_770"/>
     <path fill="#ffffff" fill-rule="nonzero" d="m2658.297492,33396.289595c1.66,1.531 3.85,2.672 6.17,2.562c2.46,-0.101 4.26,-1.023 6.18,-2.531c1.34,-1.07 2.69,-2.109 4.05,-3.172c6.45,-4.949 13,-9.75 19.67,-14.398c1.9,-1.332 3.39,-2.922 4.03,-5.211c0.57,-2.09 0.32,-4.871 -0.87,-6.731c-2.38,-3.719 -7.93,-5.937 -11.94,-3.16c-9.29,6.481 -18.37,13.27 -27.26,20.293c-1.64,1.297 -2.56,4.188 -2.57,6.168c0,2.141 0.94,4.699 2.54,6.18" id="svg_769"/>
     <path fill="#ffffff" fill-rule="nonzero" d="m2623.757492,33380.668595c3.27,3.011 9.16,3.722 12.35,0.031c6.4,-7.418 13.55,-14.16 21.29,-20.18c1.24,-0.93 2.48,-1.859 3.75,-2.75c1.89,-1.34 3.38,-2.91 4.01,-5.199c0.59,-2.09 0.33,-4.879 -0.86,-6.731c-2.37,-3.699 -7.94,-5.968 -11.93,-3.171c-10.52,7.41 -20.17,15.921 -28.58,25.66c-1.54,1.781 -2.56,3.761 -2.57,6.172c-0.01,2.14 0.94,4.699 2.54,6.168" id="svg_768"/>
     <path fill="#ffffff" fill-rule="nonzero" d="m2592.007492,33369.328595c1.66,1.543 3.84,2.672 6.16,2.57c2.15,-0.09 4.79,-0.769 6.18,-2.539l19.84,-25.418c1.5,-1.91 2.57,-3.633 2.58,-6.172c0,-2.14 -0.95,-4.699 -2.55,-6.168c-1.66,-1.531 -3.84,-2.672 -6.16,-2.57c-2.15,0.09 -4.79,0.758 -6.18,2.539l-19.84,25.418c-1.5,1.91 -2.57,3.633 -2.58,6.172c0,2.14 0.94,4.699 2.55,6.168" id="svg_767"/>
     <path fill="#ffffff" fill-rule="nonzero" d="m2556.777492,33361.039595c4.18,2.218 9.47,1.101 11.94,-3.098c4.43,-7.543 8.86,-15.082 13.28,-22.621c2.32,-3.949 1.06,-9.742 -3.1,-11.949c-4.18,-2.223 -9.48,-1.102 -11.95,3.109c-4.43,7.527 -8.86,15.07 -13.28,22.609c-2.31,3.942 -1.06,9.739 3.11,11.95" id="svg_766"/>
     <path fill="#ffffff" fill-rule="nonzero" d="m2881.827492,33260.738595c-0.56,-4.609 -1.11,-9.32 -2.04,-14.109c-0.84,-4.231 -1.58,-8.641 -2.61,-13.168l-488.24,-0.922c0,0 -0.86,4.98 -0.87,12.968c0.18,4.141 0.45,8.934 1.38,14.282l492.38,0.949" id="svg_765"/>
     <path fill="#bb2831" fill-rule="nonzero" d="m3467.937492,33560.339595l1.59,-2.82c2.54,-4.039 4.88,-7.98 7.23,-12.41c1.75,-3.789 3.88,-7.781 5.99,-11.898l-384.83,-300.661c0,0 -3.7,3.481 -8.59,9.731c-2.35,3.328 -5.04,7.25 -7.75,12.129c-0.44,0.879 -1.09,1.859 -1.43,2.929c-12.73,24.942 -20.3,67.18 24.74,117.852c2.04,2.578 4.47,4.969 7.08,7.617l0.22,0.18c3.64,3.82 7.46,7.43 11.59,11.269c1.39,1.211 2.72,2.493 4.11,3.704c98.83,90.48 117.84,162.207 117.84,162.207c0,0 70.56,35.472 118.23,92.381c0,0 15.42,-5.89 36.5,-20.62c3.48,-2.57 7.21,-5.3 11.05,-8.32c0.77,-0.52 1.51,-1.15 2.4,-1.82c1.51,-1.15 3.12,-2.58 4.75,-4.03c0.43,-0.4 1.06,-0.89 1.41,-1.35c0.3,-0.38 0.65,-0.35 0.89,-0.65c7.73,-6.75 15.66,-14.548 23.45,-23.568c8.08,-9.41 16.17,-19.922 23.53,-31.852" id="svg_764"/>
     <path fill="#ffffff" fill-rule="nonzero" d="m3209.967492,33527.199595c0.37,2.23 1.39,4.469 3.29,5.82c2.01,1.422 3.99,1.801 6.43,1.781c1.72,-0.011 3.43,-0.011 5.14,-0.011c8.13,0.058 16.26,0.289 24.38,0.718c2.31,0.122 4.47,-0.218 6.37,-1.648c1.74,-1.281 3.25,-3.641 3.45,-5.84c0.4,-4.39 -2.61,-9.558 -7.48,-9.808c-11.32,-0.61 -22.65,-0.821 -33.98,-0.731c-2.09,0.02 -4.6,1.731 -5.82,3.289c-1.32,1.68 -2.14,4.289 -1.78,6.43" id="svg_763"/>
     <path fill="#ffffff" fill-rule="nonzero" d="m3192.297492,33493.668595c0.73,4.371 4.94,8.55 9.73,7.601c9.6,-1.93 19.39,-2.859 29.18,-2.851c1.56,0.023 3.11,0.05 4.65,0.121c2.33,0.121 4.46,-0.2 6.38,-1.629c1.74,-1.301 3.25,-3.653 3.45,-5.852c0.4,-4.359 -2.6,-9.578 -7.48,-9.808c-12.85,-0.621 -25.7,0.16 -38.3,2.691c-2.31,0.457 -4.34,1.387 -5.82,3.289c-1.32,1.68 -2.14,4.277 -1.79,6.438" id="svg_762"/>
     <path fill="#ffffff" fill-rule="nonzero" d="m3174.197492,33465.211595c0.37,2.23 1.4,4.468 3.29,5.808c1.75,1.25 4.25,2.352 6.44,1.789l31.27,-7.867c2.35,-0.59 4.26,-1.293 5.82,-3.281c1.32,-1.692 2.14,-4.289 1.79,-6.449c-0.37,-2.223 -1.4,-4.461 -3.29,-5.813c-1.75,-1.238 -4.26,-2.328 -6.44,-1.789l-31.28,7.879c-2.34,0.59 -4.25,1.293 -5.81,3.293c-1.32,1.687 -2.15,4.277 -1.79,6.43" id="svg_761"/>
     <path fill="#ffffff" fill-rule="nonzero" d="m3151.487492,33437.031595c1.94,4.32 6.8,6.687 11.35,4.879c8.11,-3.231 16.24,-6.449 24.36,-9.692c4.24,-1.687 6.82,-7.039 4.88,-11.328c-1.93,-4.32 -6.8,-6.691 -11.33,-4.89c-8.12,3.23 -16.24,6.461 -24.37,9.691c-4.25,1.688 -6.82,7.039 -4.89,11.34" id="svg_760"/>
     <path fill="#ffffff" fill-rule="nonzero" d="m3469.617492,33557.507595c2.4,-3.976 4.84,-8.027 7.05,-12.386c1.94,-3.852 4.07,-7.801 6.03,-11.992l-384.74,-300.59c0,0 -3.73,3.402 -8.65,9.691c-2.4,3.379 -5.13,7.34 -7.69,12.129l388,303.148" id="svg_759"/>
     <path fill="#f9aca4" fill-rule="nonzero" d="m2640.457492,34499.349595c-7.56,-106.19 338.85,-584.11 510.91,-814.36c56.59,-75.84 94.4,-124.868 94.4,-124.868c0,0 93.93,12.828 118.22,92.448c0,0 -21.77,48.91 -54.99,122.22c-91.64,201.97 -270.7,588.7 -322.7,645.98c0,0 784.58,54.52 812.53,588.47l-491.89,10.07c-223.62,-96.45 -655.03,-358.09 -666.48,-519.96" id="svg_758"/>
     <path fill="#10454c" fill-rule="nonzero" d="m2626.827492,34502.749595c-19.02,-147.38 317.12,-602.82 489.18,-833.07c75.56,20.46 175.15,84.55 221.31,124.3c-91.64,201.96 -280.7,564.04 -332.71,621.32c0,0 766.27,59.99 794.22,593.94l-491.89,10.07c-223.62,-96.45 -655,-322.06 -680.11,-516.56" id="svg_757"/>
     <path fill="#f9aca4" fill-rule="nonzero" d="m2693.497492,33551.531595l0,-0.121c6.99,-90.719 11.91,-149.492 11.91,-149.492c60.37,-33.098 151.33,-1.258 151.33,-1.258c0,0 7.1,59.34 17.64,149.609c29.21,251.79 84.08,744.72 80.98,866.84c0,0 432.46,47.64 725.71,135.96c265.54,79.85 305.4,292.01 293.6,459.49l-512.17,-9.52c0,0 -729.37,-310.21 -796.95,-472.08c-35.06,-83.96 6.18,-692.12 27.95,-979.428" id="svg_756"/>
     <path fill="#0e7d88" fill-rule="nonzero" d="m2655.787492,33547.418595c0,0 30.98,-4.778 76.35,-7.34c2.35,-0.141 4.7,-0.289 7.12,-0.36c4.63,-0.277 9.4,-0.488 14.24,-0.64c2.36,-0.071 4.71,-0.137 7.06,-0.278c45.3,-1.281 99.57,0.278 150.7,9.75c29.21,251.779 57.2,739.239 54.13,861.309c0,0 422.44,54.91 715.67,143.23c265.52,79.85 305.4,292.02 293.65,459.47l-512.25,-9.54c0,0 -729.33,-310.18 -796.91,-472.08c-35.05,-83.97 -31.56,-696.28 -9.76,-983.521" id="svg_755"/>
     <path fill="#42bfb4" fill-rule="nonzero" d="m2753.497492,33539.078595c2.36,-0.071 4.71,-0.137 7.06,-0.278c0.28,6.7 0.49,13.45 0.78,20.149c4.56,122.15 9.19,244.37 13.75,366.52c4.56,121.72 9.19,243.51 13.74,365.24c1.14,30.91 2.28,61.75 3.49,92.59c0.93,25.14 1.5,50.56 7.69,75c6.35,25.07 19.38,46.72 40.96,61.39c21.93,14.96 47.86,23.3 72.36,32.84c113.68,44.23 227.42,88.52 341.1,132.76c114.09,44.44 228.19,88.89 342.37,133.33c0.35,0.14 0.7,0.28 1.06,0.42c4.2,1.71 2.36,8.56 -1.92,6.91c-1.99,-0.78 -3.91,-1.57 -5.91,-2.28c-12.18,-4.77 -24.5,-9.54 -36.68,-14.32c-115.74,-45.08 -231.4,-90.09 -347.15,-135.17c-57.61,-22.44 -115.31,-44.94 -172.92,-67.39c-29.2,-11.39 -58.48,-22.71 -87.68,-34.11c-26.49,-10.33 -53.42,-19.94 -79.49,-31.41c-21.94,-9.61 -42.66,-22.37 -56.34,-42.59c-13.39,-19.73 -18.87,-43.45 -21.65,-66.81c-3.06,-26.85 -3.13,-54.13 -4.2,-81.12c-1.14,-31.34 -2.35,-62.61 -3.49,-93.95c-4.63,-123.5 -9.26,-247 -13.89,-370.44l-13.04,-347.281" id="svg_754"/>
     <path fill="#42bfb4" fill-rule="nonzero" d="m2732.137492,33540.078595c2.35,-0.141 4.7,-0.289 7.12,-0.36c0.43,11.68 0.86,23.301 1.29,34.973c4.55,122.148 9.18,244.368 13.74,366.518c4.56,121.8 9.19,243.51 13.75,365.23c1.13,30.92 2.28,61.76 3.49,92.67c0.92,25.07 1.49,50.5 7.69,75c6.34,25 19.37,46.72 40.95,61.4c21.94,14.88 47.86,23.21 72.44,32.76c113.67,44.3 227.34,88.52 341.02,132.83c114.45,44.58 228.98,89.17 343.43,133.76c0.5,0.21 0.86,0.42 1.22,0.78c2.56,2.35 0.64,7.55 -3.14,6.06c-0.42,-0.15 -0.78,-0.3 -1.21,-0.5c-13.74,-5.27 -27.63,-10.68 -41.38,-16.1c-115.74,-45.08 -231.4,-90.1 -347.15,-135.18c-57.61,-22.44 -115.31,-44.87 -172.93,-67.32c-29.19,-11.39 -58.47,-22.78 -87.67,-34.17c-26.5,-10.34 -53.42,-19.95 -79.48,-31.34c-21.94,-9.69 -42.67,-22.44 -56.34,-42.6c-13.4,-19.73 -18.88,-43.52 -21.58,-66.88c-3.14,-26.85 -3.21,-54.13 -4.28,-81.12c-1.14,-31.34 -2.35,-62.61 -3.49,-93.94c-4.63,-123.44 -9.26,-246.94 -13.89,-370.44l-13.6,-362.031" id="svg_753"/>
     <path fill="#42bfb4" fill-rule="nonzero" d="m3553.777492,34925.119595c5.08,-31.67 11.15,-66.13 34.34,-90.12c21.66,-22.42 53.9,-27.29 83.66,-28.14c4.57,-0.13 4.59,-7.25 0,-7.13c-24.33,0.71 -49.8,3.8 -71.14,16.41c-21.96,12.97 -35.59,35.33 -43.33,59.09c-5.08,15.61 -7.8,31.84 -10.39,48c-0.72,4.48 6.14,6.42 6.86,1.89" id="svg_752"/>
     <path fill="#f1435e" fill-rule="nonzero" d="m3463.667492,36004.559595l47.18,-334.33l-100.25,-111.14l-82.05,323.68c0,0 38.17,89.09 135.12,121.79" id="svg_751"/>
     <path fill="#bb2831" fill-rule="nonzero" d="m3406.457492,35552.549595l-109.7,290.66c0,0 10.18,40.91 47.38,70.44l79.71,-354.56l-20.29,-8.79" id="svg_750"/>
     <path fill="#f1435e" fill-rule="nonzero" d="m3306.937492,35019.399595c167.18,-81.78 654.32,-33.04 667.69,-6.82l-104.24,996.03l-138.54,37.83l-133.22,0.75l-134.96,-42.63l-156.73,-985.16" id="svg_749"/>
     <path fill="#f9aca4" fill-rule="nonzero" d="m3870.387492,36008.609595c106.48,-25.42 178.63,-567 131.83,-653.98c-55.47,-103.1 -612.74,-304.94 -612.74,-304.94l-51.19,92.13l486.98,302.71l-52.32,394.36l97.44,169.72" id="svg_748"/>
     <path fill="#f9aca4" fill-rule="nonzero" d="m3369.057492,35155.979595c-33.35,-2.59 -115.58,67.95 -125.24,62.46c-9.67,-5.48 -8.67,-34.59 6.23,-47.38c0,0 -103.96,-16.7 -99.58,-32c4.4,-15.3 45.86,-8.92 65.31,-2.76c0,0 -64.77,-30.5 -61.33,-45.49c3.42,-14.99 67.92,15.42 67.92,15.42c0,0 -54.44,-31.02 -47.02,-45.74c7.42,-14.72 63.65,25.24 63.65,25.24c0,0 -30.08,-29.84 -22.51,-41.04c7.58,-11.19 56.98,37.86 56.98,37.86c0,0 62.89,-89.72 124.04,-25.72l-28.45,99.15" id="svg_747"/>
     <path fill="#f1435e" fill-rule="nonzero" d="m3870.387492,36008.609595c129.88,-33.23 174.73,-503.14 174.73,-503.14c0,0 -109.2,-20.48 -287.61,-20.48l-9.74,352.93l122.62,170.69" id="svg_746"/>
     <path fill="#f687a0" fill-rule="nonzero" d="m3723.457492,35767.529595c1.24,1.27 3.83,1.49 5.04,0c10.24,-12.59 20.49,-25.18 30.72,-37.78c-0.84,4.55 -1.69,9.1 -2.53,13.64c-3.57,19.23 -7.14,38.45 -10.71,57.68c-0.83,4.48 6.04,6.4 6.87,1.9c5.25,-28.28 10.5,-56.56 15.75,-84.83c0.72,-1.03 0.99,-2.25 0.63,-3.37c7.2,-38.77 14.4,-77.54 21.59,-116.3c3.58,-19.22 7.14,-38.45 10.72,-57.68c0.83,-4.48 -6.03,-6.4 -6.87,-1.89c-10.92,58.77 -21.82,117.53 -32.74,176.3c-12.82,15.76 -25.65,31.53 -38.47,47.29c-1.22,1.51 -1.43,3.57 0,5.04" id="svg_745"/>
     <path fill="#f687a0" fill-rule="nonzero" d="m3406.587492,35686.059595c15.06,57.06 26.33,115.12 33.49,173.7c2.05,16.79 3.76,33.62 5.16,50.47c0.38,4.53 7.51,4.57 7.13,0c-4.95,-59.45 -13.9,-118.56 -26.89,-176.78c-3.69,-16.5 -7.7,-32.93 -12.02,-49.29c-1.17,-4.43 -8.05,-2.55 -6.87,1.9" id="svg_744"/>
     <path fill="#100f0d" fill-rule="nonzero" d="m3411.827492,36521.689595c3.86,29.54 17.24,58.08 38.88,78.56c25.96,24.56 62.08,36.25 97.75,38.52c35.66,2.28 71.29,-4.11 106.23,-11.6c30.75,-6.59 61.58,-14.15 89.97,-27.69c28.39,-13.54 54.45,-33.53 70.62,-60.51c10.14,-16.94 15.5,-37.12 15.07,-56.96c1.07,0.27 2.1,0.66 3.2,0.79c5.45,0.66 11.26,-0.53 15.52,-3.99c4.25,-3.47 6.64,-9.38 5.19,-14.68c-1.57,-5.79 -7.1,-9.66 -12.72,-11.74c3.82,1.41 8.45,-0.4 10.65,-3.83c2.2,-3.45 2.01,-8.13 -0.09,-11.62c-1.91,-3.18 -5.26,-5.3 -8.87,-6.18c7.52,-11.11 11.62,-25.3 13.02,-38.84c3.55,-34.35 -4.97,-69.83 -23.71,-98.83c-18.74,-29 -47.59,-51.33 -80.37,-62.21c-91.2,-30.26 -194.15,0.65 -287.44,23.7c-46.29,45.27 -62.94,119.53 -39.39,179.85c-11.97,27.29 -17.36,57.71 -13.51,87.26" id="svg_743"/>
     <path fill="#f9aca4" fill-rule="nonzero" d="m3772.947492,36262.809595c0,0 -45.53,-103.07 -42.46,-238.22c-26.19,-62.18 -109.18,-55.66 -131.34,-1.36c-0.54,51.42 -10.33,75.23 -27.26,92.38c-1.39,1.45 -2.76,2.72 -4.22,4.08c-1.02,0.96 -2.01,1.83 -3.11,2.7c-2,1.74 -4.24,3.3 -6.42,5.03c-14.98,11.21 -33.59,21.48 -55.12,39.43c-25.24,20.87 -44.47,50.11 -53.09,96.86c-0.14,0.68 -0.27,1.35 -0.4,2.03c-0.17,1.19 -0.33,2.29 -0.5,3.48c-0.12,0.5 -0.15,1.01 -0.28,1.51c-6.85,44.83 -4.76,105.08 10.01,188.64c15.35,86.68 223.61,125.89 284.16,17.64c24.93,-44.68 30.03,-214.2 30.03,-214.2" id="svg_742"/>
     <path fill="#100f0d" fill-rule="nonzero" d="m3502.407492,36459.909595c58.06,-12.56 119.8,-7.59 175.1,14.11c0.3,-9.8 6.05,-19.27 14.6,-24.06c8.57,-4.78 19.64,-4.72 28.15,0.16c-10.4,-28.41 -10.02,-60.63 1.06,-88.78c11.09,-28.16 32.77,-52 59.75,-65.69c18.65,51.06 15.17,109.79 -9.37,158.3c-24.54,48.51 -69.78,86.1 -121.97,101.34c-52.19,15.23 -110.56,7.88 -157.33,-19.81c-13.95,-8.26 -41.84,-27.24 -41.57,-46.11c0.12,-8.73 11.34,-14.32 17.96,-17.94c10.43,-5.7 22.05,-9.02 33.62,-11.52" id="svg_741"/>
     <path fill="#100f0d" fill-rule="nonzero" d="m3617.287492,36308.259595c0.08,-7.38 -5.85,-13.43 -13.23,-13.5c-7.39,-0.07 -13.44,5.85 -13.51,13.24c-0.08,7.38 5.85,13.43 13.23,13.5c7.4,0.07 13.44,-5.85 13.51,-13.24" id="svg_740"/>
     <path fill="#ffffff" fill-rule="nonzero" d="m3603.877492,36311.779595c0.03,-2.7 -2.14,-4.91 -4.84,-4.94c-2.71,-0.03 -4.93,2.14 -4.94,4.85c-0.03,2.7 2.13,4.92 4.84,4.94c2.7,0.03 4.92,-2.14 4.94,-4.85" id="svg_739"/>
     <path fill="#100f0d" fill-rule="nonzero" d="m3513.857492,36307.219595c0.08,-7.38 -5.85,-13.43 -13.23,-13.5c-7.38,-0.07 -13.44,5.85 -13.51,13.24c-0.08,7.38 5.85,13.43 13.24,13.5c7.38,0.07 13.43,-5.85 13.5,-13.24" id="svg_738"/>
     <path fill="#ffffff" fill-rule="nonzero" d="m3500.447492,36310.739595c0.03,-2.7 -2.14,-4.91 -4.84,-4.94c-2.71,-0.03 -4.92,2.14 -4.95,4.85c-0.02,2.7 2.15,4.92 4.85,4.94c2.71,0.03 4.91,-2.14 4.94,-4.85" id="svg_737"/>
     <path fill="#a1312e" fill-rule="nonzero" d="m3581.487492,36246.799595c-4.07,6.43 -15.06,-0.15 -28.1,-1.06c-13.03,-0.89 -24.82,4.13 -27.98,-2.8c-3.98,-8.77 8.71,-29.01 30.07,-27.53c21.36,1.47 31.16,23.26 26.01,31.39" id="svg_736"/>
     <path fill="#da554f" fill-rule="nonzero" d="m3580.627492,36232.709595c-4.11,0.24 -8.5,0.27 -13.1,-0.05c-15.16,-1.05 -27.94,-5.06 -33.7,-9.96c5.32,-4.6 12.66,-7.91 21.65,-7.29c12.83,0.89 21.4,9.11 25.15,17.3" id="svg_735"/>
     <path fill="#ffffff" fill-rule="nonzero" d="m3553.897492,36238.419595c11.63,0.81 21.33,4.25 24.51,10.78c-5.29,1.72 -14.49,-2.73 -25.02,-3.46c-10.53,-0.72 -20.25,2.42 -25.26,-0.01c4.05,-6.04 14.13,-8.12 25.77,-7.31" id="svg_734"/>
     <path fill="#95332f" fill-rule="nonzero" d="m3530.837492,36271.129595c-0.75,-0.01 -1.45,0.48 -1.69,1.25c-3.42,11.36 0.41,15.28 4.24,16.56c3.87,1.28 8.55,0.32 13.88,-2.89c0.82,-0.5 1.08,-1.57 0.59,-2.4c-0.51,-0.83 -1.6,-1.08 -2.41,-0.6c-4.39,2.66 -8.08,3.53 -10.95,2.57c-3.43,-1.14 -4.11,-5.26 -2,-12.24c0.28,-0.92 -0.25,-1.9 -1.17,-2.18c-0.15,-0.05 -0.33,-0.07 -0.49,-0.07" id="svg_733"/>
     <path fill="#100f0d" fill-rule="nonzero" d="m3476.337492,36359.789595c16.1,8.6 35.57,9.33 51.9,0.77c3.99,-2.1 6.19,-7.42 3.9,-11.57c-2.21,-4.02 -7.29,-6.15 -11.57,-3.9c-1.64,0.86 -3.32,1.58 -5.03,2.29c-0.18,0.06 -0.14,0.05 -0.24,0.09c-0.31,0.09 -0.61,0.19 -0.92,0.28c-0.67,0.2 -1.33,0.38 -2,0.54c-1.79,0.44 -3.62,0.77 -5.44,0.99c-0.46,0.06 -3.42,0.58 -1.14,0.14c-0.76,0.15 -1.65,0.06 -2.42,0.06c-1.74,-0.01 -3.46,-0.11 -5.18,-0.31c-0.92,-0.11 -1.83,-0.26 -2.74,-0.4c-0.1,-0.01 -0.13,-0.01 -0.2,-0.02c-0.13,-0.04 -0.31,-0.09 -0.58,-0.15c-1.68,-0.41 -3.33,-0.92 -4.95,-1.52c-0.87,-0.32 -1.72,-0.67 -2.56,-1.04c-0.34,-0.15 -0.67,-0.31 -1,-0.46c-0.06,-0.04 -0.03,-0.02 -0.11,-0.06c-0.02,-0.01 -0.05,-0.01 -0.07,-0.02c-0.03,-0.02 -0.05,-0.03 -0.08,-0.04c0.03,0.02 0.02,0.01 0.05,0.03c-3.95,-2.07 -9.28,-1.91 -11.89,2.31c-2.25,3.62 -1.98,9.72 2.27,11.99" id="svg_732"/>
     <path fill="#100f0d" fill-rule="nonzero" d="m3577.087492,36366.749595c16.1,8.59 35.57,9.32 51.9,0.76c4,-2.09 6.19,-7.41 3.9,-11.57c-2.21,-4.01 -7.28,-6.14 -11.57,-3.9c-1.64,0.87 -3.32,1.58 -5.03,2.29c-0.16,0.06 -0.13,0.05 -0.24,0.09c-0.3,0.1 -0.61,0.2 -0.92,0.29c-0.66,0.19 -1.33,0.37 -2,0.54c-1.79,0.44 -3.6,0.76 -5.44,0.99c-0.46,0.05 -3.42,0.57 -1.13,0.14c-0.77,0.14 -1.65,0.05 -2.43,0.05c-1.73,-0.01 -3.46,-0.11 -5.18,-0.3c-0.92,-0.11 -1.83,-0.27 -2.74,-0.4c-0.09,-0.01 -0.13,-0.02 -0.2,-0.03c-0.13,-0.03 -0.3,-0.08 -0.58,-0.15c-1.68,-0.41 -3.33,-0.91 -4.95,-1.51c-0.87,-0.32 -1.72,-0.67 -2.56,-1.04c-0.34,-0.15 -0.67,-0.31 -0.99,-0.47c-0.07,-0.03 -0.04,-0.01 -0.11,-0.05c-0.03,-0.02 -0.06,-0.02 -0.08,-0.03c-0.03,-0.01 -0.05,-0.03 -0.08,-0.04c0.04,0.02 0.02,0.01 0.06,0.03c-3.96,-2.07 -9.28,-1.91 -11.9,2.31c-2.25,3.62 -1.97,9.73 2.27,12" id="svg_731"/>
     <path fill="#42bfb4" fill-rule="nonzero" d="m3537.967492,36298.429595c30.14,0.77 83.49,-35.05 125.01,-36.92c0,0 -5.75,-52.19 4.86,-93.7c0,0 -67.13,-31.53 -127.9,-31.53c-67.26,22.43 -86.83,75.42 -94.94,134.85c22.5,3.05 57.36,26.39 92.97,27.3" id="svg_730"/>
     <path fill="#42bfb4" fill-rule="nonzero" d="m3652.727492,36263.429595c33.92,12.02 67.86,24.03 101.79,36.05c8.66,3.06 12.38,-10.7 3.78,-13.75c-33.92,-12.01 -67.86,-24.02 -101.78,-36.04c-8.66,-3.06 -12.39,10.7 -3.79,13.74" id="svg_729"/>
     <path fill="#42bfb4" fill-rule="nonzero" d="m3659.107492,36178.079595c34.47,28.8 68.93,57.61 103.39,86.41c7,5.84 17.12,-4.18 10.08,-10.07l-103.4,-86.41c-6.98,-5.84 -17.11,4.18 -10.07,10.07" id="svg_728"/>
     <path fill="#f9aca4" fill-rule="nonzero" d="m3818.707492,36259.389595c-17.67,-21.52 -45.85,-27.59 -62.93,-13.56c-17.08,14.04 -16.59,42.85 1.09,64.37c17.67,21.52 45.85,27.58 62.93,13.55c17.08,-14.03 16.59,-42.85 -1.09,-64.36" id="svg_727"/>
     <path fill="#95332f" fill-rule="nonzero" d="m3808.227492,36313.189595c-7.65,3.95 -17.8,3.66 -27.12,-0.8c-4.65,-2.21 -8.01,-4.89 -10.3,-8.16c-3,-4.35 -3.8,-9.78 -2.07,-14.17c1.56,-3.94 4.74,-6.47 7.54,-8.71c2.03,-1.62 3.96,-3.15 5.05,-4.99c1.68,-2.83 1.31,-6.81 -0.88,-9.27c-2.18,-2.45 -6.09,-3.28 -9.1,-1.93c-1.77,0.79 -3.83,0 -4.63,-1.75c-0.78,-1.76 0,-3.84 1.76,-4.63c1.92,-0.87 4.01,-1.27 6.1,-1.25c4.15,0.04 8.29,1.77 11.1,4.91c4.2,4.72 4.89,12.08 1.66,17.5c-1.75,2.93 -4.38,5.02 -6.7,6.87c-2.33,1.86 -4.52,3.61 -5.39,5.82c-0.87,2.21 -0.36,5.19 1.32,7.61c0.67,0.97 1.6,1.85 2.62,2.7c3.47,0.07 7.83,-0.96 10.05,-3.33c2.5,-2.69 3.7,-6.59 3.15,-10.21c-0.3,-1.91 1.01,-3.69 2.93,-3.99c0.18,-0.03 0.38,-0.05 0.56,-0.04c1.68,0.01 3.16,1.24 3.42,2.96c0.9,5.77 -0.96,11.77 -4.94,16.05c-1.5,1.59 -3.34,2.66 -5.27,3.52c5.77,1.62 11.47,1.37 15.92,-0.93c5.5,-2.83 9.71,-10.25 6.96,-16.36c-0.78,-1.76 0,-3.83 1.75,-4.63c1.76,-0.78 3.83,-0.01 4.63,1.76c4,8.89 -0.64,20.55 -10.12,25.45" id="svg_726"/>
    </g>
   </g>
  </g>
 </g>
</svg>